<svg width="24" height="24" viewBox="0 0 24 24" fill="none" xmlns="http://www.w3.org/2000/svg">
<g clip-path="url(#clip0_37_238081)">
<path d="M2.18519 6.75806C0.690187 6.75806 -0.0078125 7.60706 -0.0078125 8.92906V10.4631C-0.0078125 11.8361 0.238187 12.4221 1.22719 13.0431L1.99019 13.5171C2.60819 13.8911 2.68819 14.1681 2.68819 14.9701V16.3241C2.68819 16.7171 2.50819 16.9601 2.16719 16.9601C1.82519 16.9601 1.64519 16.7321 1.64519 16.3241V14.1991H-0.0078125V16.3391C-0.0078125 17.6771 0.675187 18.5091 2.15119 18.5091C3.67719 18.5091 4.37519 17.6271 4.37519 16.3391V14.6731C4.37519 13.4011 4.04919 12.7461 3.11019 12.1441L2.34719 11.6541C1.81019 11.3121 1.67919 11.0681 1.67919 10.1851V8.94506C1.67919 8.55106 1.85919 8.30806 2.18219 8.30806C2.52319 8.30806 2.71919 8.55506 2.71919 8.94406V11.0491H4.37519V8.93006C4.37519 7.62306 3.67719 6.76006 2.18519 6.76006M4.89619 6.92206V8.55706H6.06619V18.3541H7.75319V8.55506H8.92319V6.92006L4.89619 6.92206ZM9.96219 6.92206L9.01919 18.3491H10.6912L10.9212 15.2961H12.1482L12.3782 18.3491H14.0842L13.1442 6.92206H9.96219ZM14.9472 6.92206V18.3491H16.6342V13.5691H17.6582V17.4861C17.6582 18.1381 17.9342 18.3491 17.9342 18.3491H19.6212C19.6252 18.3531 19.3492 18.1421 19.3492 17.4861V14.5141C19.3492 13.5651 18.9922 13.0441 18.1292 12.8641V12.6671C18.9892 12.5361 19.4292 11.8991 19.4292 10.8701V8.92906C19.4292 7.67206 18.6822 6.92006 17.2362 6.92006L14.9472 6.92206ZM19.9672 6.92206V8.55706H21.1362V18.3541H22.8232V8.55506H23.9932V6.92006L19.9672 6.92206ZM11.4382 8.47206H11.6382L12.0372 13.7461H11.0402L11.4382 8.47206ZM16.6382 8.47606H17.0752C17.5972 8.47606 17.7422 8.68806 17.7422 9.53606V10.9551C17.7422 11.7721 17.5622 12.0151 17.0102 12.0151H16.6382V8.47606Z" fill="#046F7D"/>
</g>
<defs>
<clipPath id="clip0_37_238081">
<rect width="24" height="24" fill="white"/>
</clipPath>
</defs>
</svg>
