<svg width="24" height="24" viewBox="0 0 24 24" fill="none" xmlns="http://www.w3.org/2000/svg">
<path d="M23.8408 10.1166L21.4483 5.3297C21.3602 5.15352 21.2382 4.99642 21.0894 4.86737C20.9405 4.73833 20.7677 4.63988 20.5808 4.57763C20.3939 4.51539 20.1965 4.49057 20 4.5046C19.8035 4.51863 19.6117 4.57123 19.4355 4.65939L17.104 5.8247L12.1924 4.52533C12.0664 4.49253 11.934 4.49253 11.808 4.52533L6.89645 5.8247L4.56489 4.65939C4.38872 4.57123 4.1969 4.51863 4.0004 4.5046C3.8039 4.49057 3.60655 4.51539 3.41964 4.57763C3.23273 4.63988 3.05991 4.73833 2.91105 4.86737C2.7622 4.99642 2.64022 5.15352 2.55208 5.3297L0.159578 10.1156C0.0714119 10.2918 0.0188128 10.4836 0.00478447 10.6801C-0.00924383 10.8766 0.0155735 11.074 0.0778192 11.2609C0.140065 11.4478 0.23852 11.6206 0.367561 11.7695C0.496603 11.9183 0.653703 12.0403 0.829891 12.1285L3.36114 13.395L8.56333 17.1103C8.64003 17.1648 8.72618 17.2045 8.81739 17.2275L14.8174 18.7275C14.943 18.759 15.0747 18.7575 15.1996 18.723C15.3244 18.6885 15.4382 18.6222 15.5299 18.5306L19.2799 14.7806L20.6936 13.3669L23.1705 12.1285C23.5261 11.9504 23.7964 11.6385 23.9221 11.2613C24.0478 10.884 24.0186 10.4723 23.8408 10.1166ZM18.6949 13.245L15.469 10.6613C15.3244 10.5455 15.1422 10.4873 14.9574 10.4979C14.7725 10.5085 14.5981 10.587 14.4677 10.7185C12.798 12.4003 10.9371 12.1875 9.7502 11.4375L13.804 7.50002H16.7861L19.3371 12.601L18.6949 13.245ZM14.7696 17.1694L9.32083 15.8072L4.70833 12.5128L7.33333 7.26283L12.0002 6.02627L12.919 6.26908L8.7002 10.3641L8.6927 10.3725C8.5339 10.5313 8.41278 10.7238 8.33828 10.9356C8.26379 11.1475 8.23782 11.3734 8.26229 11.5967C8.28677 11.8199 8.36106 12.0348 8.47969 12.2255C8.59832 12.4162 8.75826 12.5778 8.9477 12.6985C10.8752 13.9294 13.2011 13.7297 15.033 12.2297L17.6252 14.3119L14.7696 17.1694ZM12.3583 20.4319C12.3178 20.594 12.2243 20.7379 12.0927 20.8408C11.9611 20.9438 11.7989 20.9998 11.6318 21C11.5701 21.0001 11.5087 20.9925 11.449 20.9775L7.53864 19.9997C7.44728 19.9771 7.36105 19.9374 7.28458 19.8825L4.81427 18.1181C4.66237 17.9989 4.56234 17.8256 4.53499 17.6345C4.50764 17.4433 4.55508 17.2489 4.66745 17.0919C4.77981 16.9348 4.94842 16.8271 5.13818 16.7913C5.32794 16.7554 5.52422 16.7942 5.68614 16.8994L8.0402 18.5813L11.8127 19.5225C12.0056 19.5708 12.1715 19.6937 12.2738 19.8642C12.3761 20.0348 12.4065 20.2389 12.3583 20.4319Z" fill="#046F7D"/>
</svg>
