<svg width="24" height="23" viewBox="0 0 24 23" fill="none" xmlns="http://www.w3.org/2000/svg">
<path d="M21.6291 1.71716C21.6209 1.67747 21.6016 1.64093 21.5733 1.61184C21.5451 1.58275 21.5092 1.5623 21.4698 1.5529C18.8411 0.910199 12.7673 3.20048 9.47663 6.48982C8.88971 7.072 8.35465 7.70423 7.87752 8.37932C6.86275 8.28956 5.84799 8.36451 4.98313 8.74151C2.54294 9.81552 1.83247 12.6179 1.63455 13.8234C1.62332 13.8894 1.62756 13.9571 1.64692 14.0211C1.66628 14.0852 1.70025 14.1439 1.74614 14.1926C1.79203 14.2414 1.8486 14.2788 1.9114 14.3019C1.9742 14.3251 2.04151 14.3333 2.10804 14.3261L6.02662 13.8939C6.02941 14.1893 6.04723 14.4844 6.08003 14.778C6.09974 14.9819 6.19026 15.1725 6.33585 15.3166L7.85328 16.8304C7.99755 16.9758 8.18802 17.0663 8.39185 17.0863C8.68384 17.1189 8.97729 17.1367 9.27108 17.1397L8.84111 21.0533C8.83394 21.1198 8.84228 21.1871 8.86546 21.2498C8.88865 21.3126 8.92606 21.3691 8.97476 21.415C9.02345 21.4609 9.08212 21.4948 9.14614 21.5142C9.21017 21.5336 9.27782 21.5379 9.34378 21.5268C10.547 21.3338 13.3544 20.6233 14.4221 18.1832C14.7991 17.3183 14.8763 16.3085 14.7892 15.2986C15.4659 14.8215 16.0998 14.2863 16.6836 13.6991C19.9847 10.4147 22.2619 4.47646 21.6291 1.71716ZM13.3903 9.78096C13.0888 9.47973 12.8835 9.09587 12.8003 8.67794C12.717 8.26001 12.7596 7.82678 12.9226 7.43306C13.0857 7.03933 13.3618 6.70279 13.7161 6.46601C14.0704 6.22923 14.4869 6.10285 14.9131 6.10285C15.3392 6.10285 15.7558 6.22923 16.1101 6.46601C16.4644 6.70279 16.7405 7.03933 16.9035 7.43306C17.0665 7.82678 17.1091 8.26001 17.0259 8.67794C16.9426 9.09587 16.7373 9.47973 16.4359 9.78096C16.236 9.98112 15.9986 10.1399 15.7374 10.2483C15.4761 10.3566 15.196 10.4124 14.9131 10.4124C14.6302 10.4124 14.3501 10.3566 14.0888 10.2483C13.8275 10.1399 13.5901 9.98112 13.3903 9.78096Z" fill="#046F7D"/>
<path d="M7.74988 17.9269C7.50393 18.1733 7.10943 18.2693 6.63459 18.3515C5.56776 18.5332 4.62571 17.6114 4.81735 16.5329C4.8905 16.124 5.10683 15.5509 5.24147 15.4162C5.2709 15.3874 5.29049 15.35 5.29746 15.3094C5.30442 15.2687 5.29841 15.2269 5.28028 15.1899C5.26214 15.1529 5.2328 15.1225 5.19643 15.1031C5.16006 15.0838 5.1185 15.0763 5.07766 15.0819C4.48108 15.1549 3.92607 15.4253 3.50098 15.8502C2.44583 16.9063 2.34619 20.8249 2.34619 20.8249C2.34619 20.8249 6.26701 20.7252 7.32216 19.6692C7.74835 19.2444 8.01916 18.6886 8.09098 18.0912C8.10758 17.9036 7.87914 17.7918 7.74988 17.9269Z" fill="#046F7D"/>
</svg>
