<svg width="24" height="24" viewBox="0 0 24 24" fill="none" xmlns="http://www.w3.org/2000/svg">
<path d="M7 4.82998C7 6.37698 8.726 8.00799 10.15 9.08998C10.949 9.69598 11.348 9.99998 12 9.99998C12.652 9.99998 13.051 9.69598 13.85 9.08998C15.274 8.00698 17 6.37598 17 4.82998C17 2.03998 14.25 0.996985 12 3.15298C9.75 0.996985 7 2.03998 7 4.82998ZM6.26 21.388H6C5.057 21.388 4.586 21.388 4.293 21.095C4 20.804 4 20.332 4 19.389V18.277C4 17.759 4 17.5 4.133 17.268C4.266 17.036 4.467 16.92 4.869 16.686C7.515 15.147 11.272 14.281 13.779 15.776C13.9477 15.8767 14.0977 15.9993 14.229 16.144C14.3636 16.291 14.4672 16.4636 14.5339 16.6515C14.6006 16.8393 14.6289 17.0386 14.6171 17.2376C14.6054 17.4366 14.5538 17.6312 14.4655 17.8099C14.3772 17.9886 14.2539 18.1478 14.103 18.278C13.9828 18.3921 13.836 18.4746 13.676 18.518C13.796 18.504 13.911 18.4883 14.021 18.471C14.932 18.326 15.697 17.838 16.397 17.309L18.205 15.944C18.5277 15.7098 18.9163 15.5837 19.315 15.5837C19.7137 15.5837 20.1023 15.7098 20.425 15.944C20.998 16.377 21.174 17.09 20.811 17.672C20.388 18.35 19.792 19.217 19.22 19.747C18.648 20.277 17.794 20.751 17.098 21.087C16.326 21.46 15.474 21.674 14.607 21.815C12.849 22.099 11.017 22.055 9.277 21.697C8.28432 21.4927 7.27349 21.3885 6.26 21.388Z" fill="#046F7D"/>
</svg>
