<svg width="24" height="24" viewBox="0 0 24 24" fill="none" xmlns="http://www.w3.org/2000/svg">
<path d="M8.49988 6.5C8.49988 6.04037 8.59041 5.58525 8.7663 5.16061C8.94219 4.73597 9.2 4.35013 9.525 4.02513C9.85001 3.70012 10.2358 3.44231 10.6605 3.26642C11.0851 3.09053 11.5402 3 11.9999 3C12.4595 3 12.9146 3.09053 13.3393 3.26642C13.7639 3.44231 14.1497 3.70012 14.4748 4.02513C14.7998 4.35013 15.0576 4.73597 15.2335 5.16061C15.4093 5.58525 15.4999 6.04037 15.4999 6.5C15.4999 7.42826 15.1311 8.3185 14.4748 8.97487C13.8184 9.63125 12.9281 10 11.9999 10C11.0716 10 10.1814 9.63125 9.525 8.97487C8.86863 8.3185 8.49988 7.42826 8.49988 6.5ZM4.49988 11C5.16292 11 5.7988 10.7366 6.26764 10.2678C6.73648 9.79893 6.99988 9.16304 6.99988 8.5C6.99988 7.83696 6.73648 7.20107 6.26764 6.73223C5.7988 6.26339 5.16292 6 4.49988 6C3.83683 6 3.20095 6.26339 2.73211 6.73223C2.26327 7.20107 1.99988 7.83696 1.99988 8.5C1.99988 9.16304 2.26327 9.79893 2.73211 10.2678C3.20095 10.7366 3.83683 11 4.49988 11ZM21.9999 8.5C21.9999 9.16304 21.7365 9.79893 21.2676 10.2678C20.7988 10.7366 20.1629 11 19.4999 11C18.8368 11 18.201 10.7366 17.7321 10.2678C17.2633 9.79893 16.9999 9.16304 16.9999 8.5C16.9999 7.83696 17.2633 7.20107 17.7321 6.73223C18.201 6.26339 18.8368 6 19.4999 6C20.1629 6 20.7988 6.26339 21.2676 6.73223C21.7365 7.20107 21.9999 7.83696 21.9999 8.5ZM10.4999 12C9.11988 12 7.99988 13.12 7.99988 14.5V17C7.99988 18.0609 8.4213 19.0783 9.17145 19.8284C9.92159 20.5786 10.939 21 11.9999 21C13.0607 21 14.0782 20.5786 14.8283 19.8284C15.5784 19.0783 15.9999 18.0609 15.9999 17V14.5C15.9999 13.12 14.8799 12 13.4999 12H10.4999ZM5.99988 14.5C5.99988 13.922 6.10788 13.37 6.30788 12.864L3.84588 13.524C3.2058 13.6956 2.66003 14.1143 2.32851 14.6881C1.99699 15.2618 1.90684 15.9438 2.07788 16.584L2.46588 18.034C2.60187 18.5415 2.8365 19.0172 3.15636 19.4339C3.47623 19.8507 3.87506 20.2004 4.33008 20.463C4.7851 20.7256 5.2874 20.896 5.80829 20.9645C6.32918 21.0329 6.85845 20.9981 7.36588 20.862L7.39988 20.852C6.49554 19.7721 5.99994 18.4085 5.99988 17V14.5ZM17.9999 17C17.9999 18.466 17.4739 19.81 16.5999 20.854L16.6319 20.862C17.6564 21.1363 18.7479 20.9925 19.6664 20.4621C20.5849 19.9318 21.2552 19.0584 21.5299 18.034L21.9179 16.584C22.0889 15.9438 21.9988 15.2618 21.6672 14.6881C21.3357 14.1143 20.79 13.6956 20.1499 13.524L17.6939 12.864C17.8919 13.372 17.9999 13.924 17.9999 14.5V17Z" fill="#046F7D"/>
</svg>
