<svg width="24" height="24" viewBox="0 0 24 24" fill="none" xmlns="http://www.w3.org/2000/svg">
<path d="M4 21C3.45 21 2.97933 20.8043 2.588 20.413C2.19667 20.0217 2.00067 19.5507 2 19V8C2 7.45 2.196 6.97933 2.588 6.588C2.98 6.19667 3.45067 6.00067 4 6H8V4C8 3.45 8.196 2.97933 8.588 2.588C8.98 2.19667 9.45067 2.00067 10 2H14C14.55 2 15.021 2.196 15.413 2.588C15.805 2.98 16.0007 3.45067 16 4V6H20C20.55 6 21.021 6.196 21.413 6.588C21.805 6.98 22.0007 7.45067 22 8V19C22 19.55 21.8043 20.021 21.413 20.413C21.0217 20.805 20.5507 21.0007 20 21H4ZM10 6H14V4H10V6ZM12 15.5C12.55 15.5 13.021 15.3043 13.413 14.913C13.805 14.5217 14.0007 14.0507 14 13.5C13.9993 12.9493 13.8037 12.4787 13.413 12.088C13.0223 11.6973 12.5513 11.5013 12 11.5C11.4487 11.4987 10.978 11.6947 10.588 12.088C10.198 12.4813 10.002 12.952 10 13.5C9.998 14.048 10.194 14.519 10.588 14.913C10.982 15.307 11.4527 15.5027 12 15.5Z" fill="white"/>
</svg>
