<svg width="24" height="24" viewBox="0 0 24 24" fill="none" xmlns="http://www.w3.org/2000/svg">
<path d="M6.99981 5.99996C7.00001 5.05393 7.26858 4.12737 7.77435 3.32788C8.28011 2.5284 9.00231 1.8888 9.85707 1.48339C10.7118 1.07797 11.6641 0.923358 12.6032 1.03752C13.5423 1.15168 14.4298 1.52992 15.1625 2.12832C15.8952 2.72672 16.4431 3.52071 16.7426 4.41808C17.0421 5.31545 17.0809 6.27938 16.8544 7.1979C16.628 8.11643 16.1456 8.95185 15.4633 9.60716C14.7809 10.2625 13.9267 10.7108 12.9998 10.9V17H10.9998V10.9C9.87045 10.6694 8.85542 10.0558 8.12651 9.16286C7.3976 8.26995 6.99958 7.15261 6.99981 5.99996ZM3.10481 11H7.99981V13H4.89481L4.11681 20H19.8828L19.1048 13H15.9998V11H20.8948L22.1168 22H1.88281L3.10481 11Z" fill="white"/>
</svg>
