<svg width="24" height="24" viewBox="0 0 24 24" fill="none" xmlns="http://www.w3.org/2000/svg">
<path d="M7.9528 3.00107V17.3871M14.8977 6.47355V20.3635M5.22741 4.18767L4.01006 4.89407C3.02884 5.46256 2.53873 5.74731 2.26986 6.22056C2 6.69381 2 7.26925 2 8.42212V16.5219C2 18.0359 2 18.7939 2.33931 19.2146C2.56552 19.4944 2.88201 19.6829 3.23223 19.7454C3.75806 19.8397 4.40295 19.4656 5.69074 18.7185C6.5658 18.2116 7.40713 17.6837 8.45383 17.8276C8.93005 17.8921 9.38346 18.1183 10.2922 18.5697L14.0753 20.4508C14.8938 20.8576 14.9017 20.8596 15.8115 20.8596H17.8741C19.7453 20.8596 20.6799 20.8596 21.2613 20.2653C21.8427 19.672 21.8427 18.7156 21.8427 16.8027V10.1157C21.8427 8.20384 21.8427 7.24842 21.2613 6.65313C20.6799 6.05983 19.7453 6.05983 17.8741 6.05983H15.8115C14.9017 6.05983 14.8938 6.05785 14.0753 5.65107L10.7705 4.00809C9.3904 3.32153 8.69988 2.97825 7.96471 3.00107C7.22953 3.02389 6.56381 3.41281 5.22741 4.18767Z" stroke="#73717E" stroke-width="1.5" stroke-linecap="round" stroke-linejoin="round"/>
</svg>
