<svg width="24" height="24" viewBox="0 0 24 24" fill="none" xmlns="http://www.w3.org/2000/svg">
<path d="M11.9213 2C17.4008 2 21.8426 6.44182 21.8426 11.9214C21.8426 17.401 17.4008 21.8428 11.9213 21.8428C6.44177 21.8428 2 17.401 2 11.9214C2 6.44182 6.44177 2 11.9213 2ZM11.9213 3.98428C9.81627 3.98428 7.79745 4.82051 6.30897 6.30902C4.82048 7.79752 3.98426 9.81636 3.98426 11.9214C3.98426 14.0265 4.82048 16.0453 6.30897 17.5338C7.79745 19.0223 9.81627 19.8586 11.9213 19.8586C14.0263 19.8586 16.0452 19.0223 17.5336 17.5338C19.0221 16.0453 19.8584 14.0265 19.8584 11.9214C19.8584 9.81636 19.0221 7.79752 17.5336 6.30902C16.0452 4.82051 14.0263 3.98428 11.9213 3.98428ZM11.9213 5.96857C12.1643 5.9686 12.3989 6.05782 12.5805 6.2193C12.762 6.38078 12.8781 6.60329 12.9065 6.84463L12.9134 6.96071V11.5107L15.5991 14.1964C15.7771 14.3749 15.8804 14.6145 15.8881 14.8665C15.8958 15.1184 15.8073 15.3639 15.6406 15.5529C15.4738 15.742 15.2414 15.8605 14.9905 15.8844C14.7396 15.9083 14.4889 15.8358 14.2895 15.6816L14.1963 15.5993L11.2199 12.6229C11.0657 12.4685 10.9666 12.2677 10.9381 12.0514L10.9292 11.9214V6.96071C10.9292 6.69758 11.0337 6.44522 11.2198 6.25916C11.4058 6.0731 11.6582 5.96857 11.9213 5.96857Z" fill="#73717E"/>
</svg>
