<svg width="70" height="63" viewBox="0 0 70 63" fill="none" xmlns="http://www.w3.org/2000/svg">
<path d="M0.00031865 36.5994L17.0599 24.3996C20.4235 29.1031 26.9917 30.194 31.6951 26.8304C36.3986 23.4669 37.4831 16.9032 34.1195 12.1998L51.1791 -1.13898e-05C53.6467 3.45046 55.3706 7.28703 56.2884 11.4087C57.175 15.378 57.2883 19.434 56.6202 23.4565C55.9521 27.479 54.5337 31.2806 52.4116 34.7501C50.206 38.3474 47.3408 41.4161 43.8839 43.8882C40.427 46.3603 36.5969 48.0797 32.4752 48.9975C28.5059 49.884 24.4499 49.9974 20.4274 49.3293C16.405 48.6612 12.6034 47.2427 9.1338 45.1207C5.53654 42.9151 2.46785 40.0499 0.00031865 36.5994Z" fill="#E1E6FF"/>
</svg>
