<svg width="57" height="71" viewBox="0 0 57 71" fill="none" xmlns="http://www.w3.org/2000/svg">
<path d="M56.0901 13.9457L46.7918 32.7449C41.6087 30.1813 35.3014 32.314 32.7378 37.4971C30.1742 42.6801 32.3104 48.9804 37.4935 51.544L28.1951 70.3431C24.3928 68.4624 21.0645 65.8908 18.3127 62.6879C15.6605 59.6047 13.6492 56.0806 12.3431 52.2178C11.037 48.3551 10.4967 44.3336 10.7336 40.2734C10.9839 36.0613 12.065 32.0046 13.9492 28.1952C15.8334 24.3858 18.4015 21.0645 21.6044 18.3128C24.6877 15.6605 28.2118 13.6493 32.0745 12.3431C35.9372 11.037 39.9587 10.4968 44.0189 10.7336C48.231 10.9839 52.2878 12.0651 56.0901 13.9457Z" fill="#E1E6FF"/>
</svg>
